# xmcd
#
# Track frame offsets: 
#        150
#        11842
#        25955
#        37600
#        52950
#        68367
#        89510
#        102742
#        122987
#        139530
#        157735
#
# Disc length: 2319 seconds
#
# Revision: 2
# Processed by: cddbd v1.5.2PL0 Copyright (c) Steve Scherf et al.
# Submitted via: ExactAudioCopyFreeDBPlugin 1.0
#
DISCID=83090d0b
DTITLE=R.L. Burnside - Mississipi Blues
DYEAR=1997
DGENRE=Blues
TTITLE0=Jumper Hanging Out On The Line
TTITLE1=Sweet Little Angel
TTITLE2=Long Haired Doney
TTITLE3=Nightmare Blues
TTITLE4=Poor Black Mattie
TTITLE5=Catfish Blues
TTITLE6=Death Bells
TTITLE7=Dust My Broom
TTITLE8=Bad Luck And Trouble
TTITLE9=Rolling And Tumbling
TTITLE10=When My First Wife Quit Me
EXTD=
EXTT0=
EXTT1=
EXTT2=
EXTT3=
EXTT4=
EXTT5=
EXTT6=
EXTT7=
EXTT8=
EXTT9=
EXTT10=
PLAYORDER=
